<svg width="87" height="174" viewBox="0 0 87 174" fill="none" xmlns="http://www.w3.org/2000/svg">
<g clip-path="url(#clip0_20_2)">
<path d="M70.4315 173.401H16.0325C7.87334 173.401 1.23529 166.763 1.23529 158.603V14.7972C1.23529 6.63804 7.87334 0 16.0325 0H70.4315C78.5905 0 85.2286 6.63804 85.2286 14.7972C86.2412 72.5453 87.968 137.214 85.2286 158.603C85.2286 166.763 78.5905 173.401 70.4315 173.401Z" fill="#3F3D56"/>
<path d="M85.9871 52.8965C85.6419 52.8965 85.3612 53.1773 85.3612 53.5225V73.5544C85.3612 73.8996 85.6419 74.1803 85.9871 74.1803C86.3324 74.1803 86.6131 73.8996 86.6131 73.5544V53.5225C86.6131 53.1773 86.3324 52.8965 85.9871 52.8965Z" fill="#3F3D56"/>
<path d="M83.8202 14.7973V158.601C83.8202 165.703 78.2927 171.512 71.3035 171.963H71.3003C71.197 171.969 71.0937 171.975 70.9873 171.978C70.8026 171.988 70.618 171.991 70.4302 171.991C70.4302 171.991 69.7416 171.941 68.4833 171.847C67.2126 171.753 65.3628 171.612 63.056 171.427C62.3643 171.374 61.635 171.315 60.865 171.252C59.3313 171.127 57.6474 170.989 55.8414 170.833C55.1215 170.773 54.3766 170.707 53.616 170.642C49.7286 170.307 45.3748 169.916 40.7831 169.471C40.0069 169.399 39.2244 169.324 38.4356 169.246C38.2291 169.224 2.64391 160.278 2.64391 158.601V14.7973C2.64391 7.40122 8.63781 1.40732 16.0339 1.40732H24.0279C25.3049 1.40732 26.3315 2.40265 26.4411 3.67655C26.4505 3.76106 26.4599 3.84556 26.4755 3.93007C26.7071 5.21024 27.8809 6.10228 29.1829 6.10228H57.2812C58.5833 6.10228 59.757 5.21024 59.9886 3.93007C60.0043 3.84556 60.0136 3.76106 60.023 3.67655C60.1326 2.40265 61.1592 1.40732 62.4362 1.40732H70.4302C77.8263 1.40732 83.8202 7.40122 83.8202 14.7973Z" fill="white"/>
<path d="M0.922357 37.8727C0.577112 37.8727 0.296364 38.1535 0.296364 38.4987V43.5067C0.296364 43.8519 0.577116 44.1326 0.922357 44.1326C1.2676 44.1326 1.54835 43.8519 1.54835 43.5067V38.4987C1.54835 38.1535 1.2676 37.8727 0.922357 37.8727Z" fill="#3F3D56"/>
<path d="M0.922357 52.8965C0.577112 52.8965 0.296364 53.1773 0.296364 53.5225V63.2254C0.296364 63.5707 0.577116 63.8514 0.922357 63.8514C1.2676 63.8514 1.54835 63.5707 1.54835 63.2254V53.5225C1.54835 53.1773 1.2676 52.8965 0.922357 52.8965Z" fill="#3F3D56"/>
<path d="M0.922357 66.6684C0.577112 66.6684 0.296364 66.9492 0.296364 67.2944V76.9973C0.296364 77.3426 0.577116 77.6233 0.922357 77.6233C1.2676 77.6233 1.54835 77.3426 1.54835 76.9973V67.2944C1.54835 66.9492 1.2676 66.6684 0.922357 66.6684Z" fill="#3F3D56"/>
<path d="M23.81 3.59952H11.8384C11.7734 3.59952 11.7208 3.6522 11.7208 3.71718V5.04685C11.7208 5.11183 11.7734 5.16451 11.8384 5.16451H23.81C23.875 5.16451 23.9276 5.11183 23.9276 5.04685V3.71718C23.9276 3.6522 23.875 3.59952 23.81 3.59952Z" fill="#E6E6E6"/>
<path d="M64.4143 5.1645C65.1058 5.1645 65.6663 4.60397 65.6663 3.91251C65.6663 3.22106 65.1058 2.66052 64.4143 2.66052C63.7229 2.66052 63.1623 3.22106 63.1623 3.91251C63.1623 4.60397 63.7229 5.1645 64.4143 5.1645Z" fill="#E6E6E6"/>
<path d="M67.8573 5.1645C68.5487 5.1645 69.1093 4.60397 69.1093 3.91251C69.1093 3.22106 68.5487 2.66052 67.8573 2.66052C67.1658 2.66052 66.6053 3.22106 66.6053 3.91251C66.6053 4.60397 67.1658 5.1645 67.8573 5.1645Z" fill="#E6E6E6"/>
<path d="M71.3003 5.1645C71.9917 5.1645 72.5522 4.60397 72.5522 3.91251C72.5522 3.22106 71.9917 2.66052 71.3003 2.66052C70.6088 2.66052 70.0483 3.22106 70.0483 3.91251C70.0483 4.60397 70.6088 5.1645 71.3003 5.1645Z" fill="#E6E6E6"/>
<path d="M53.24 113.034H33.5171C32.6806 113.034 32 112.354 32 111.517C32 110.681 32.6806 110 33.5171 110H53.24C54.0766 110 54.7572 110.681 54.7572 111.517C54.7572 112.354 54.0766 113.034 53.24 113.034Z" fill="#1E3A8A"/>
<path d="M69.7821 49.203V89.4073C69.7821 92.9627 66.8897 95.8552 63.3342 95.8552H23.1299C19.5745 95.8552 16.6821 92.9627 16.6821 89.4073V49.203C16.6821 45.6476 19.5745 42.7551 23.1299 42.7551H63.3342C66.8897 42.7551 69.7821 45.6476 69.7821 49.203ZM63.3342 95.0966C66.4763 95.0966 69.0235 92.5494 69.0235 89.4073V69.1379C69.0235 54.986 57.5512 43.5137 43.3993 43.5137H23.1299C19.9878 43.5137 17.4406 46.0609 17.4406 49.203V89.4073C17.4406 92.5494 19.9878 95.0966 23.1299 95.0966H63.3342Z" fill="#3F3D56"/>
<path d="M48.584 59.1753H35.6046C35.2773 59.1753 35.0111 58.909 35.0111 58.5818C35.0111 58.2546 35.2774 57.9884 35.6046 57.9884H48.584C48.9112 57.9884 49.1773 58.2546 49.1773 58.5818C49.1773 58.909 48.9112 59.1753 48.584 59.1753Z" fill="#3F3D56"/>
<path d="M48.584 71.8296H35.6046C35.2773 71.8296 35.0111 71.5634 35.0111 71.2361C35.0111 70.9089 35.2774 70.6428 35.6046 70.6428H48.584C48.9112 70.6428 49.1773 70.9089 49.1773 71.2361C49.1773 71.5634 48.9112 71.8296 48.584 71.8296Z" fill="#3F3D56"/>
<path d="M42.1361 89.2768H29.1567C28.8295 89.2768 28.5632 89.0105 28.5632 88.6833C28.5632 88.3561 28.8295 88.0899 29.1567 88.0899H42.1361C42.4633 88.0899 42.7295 88.3561 42.7295 88.6833C42.7295 89.0105 42.4633 89.2768 42.1361 89.2768Z" fill="#3F3D56"/>
<path d="M55.5488 65.5066H28.6397C28.3125 65.5066 28.0462 65.2403 28.0462 64.9131C28.0462 64.5859 28.3125 64.3198 28.6397 64.3198H55.5488C55.8761 64.3198 56.1422 64.5859 56.1422 64.9131C56.1422 65.2403 55.8761 65.5066 55.5488 65.5066Z" fill="#3F3D56"/>
</g>
<defs>
<clipPath id="clip0_20_2">
<rect width="86.4073" height="173.401" fill="white" transform="translate(0.296356)"/>
</clipPath>
</defs>
</svg>
